<?xml version="1.0" standalone="no"?>
<!DOCTYPE svg PUBLIC "-//W3C//DTD SVG 20010904//EN"
 "http://www.w3.org/TR/2001/REC-SVG-20010904/DTD/svg10.dtd">
<svg version="1.0" xmlns="http://www.w3.org/2000/svg"
 width="600.000000pt" height="600.000000pt" viewBox="0 0 600.000000 600.000000"
 preserveAspectRatio="xMidYMid meet">

<g transform="translate(0.000000,600.000000) scale(0.100000,-0.100000)"
fill="#000000" stroke="none">
<path d="M3983 5859 c-148 -39 -249 -98 -353 -204 -42 -42 -73 -65 -88 -65
-12 0 -55 9 -94 20 -158 44 -535 51 -748 14 -120 -20 -291 -72 -407 -122 -165
-72 -429 -232 -523 -319 -30 -27 -73 -65 -94 -84 -69 -60 -265 -291 -331 -389
-200 -302 -349 -728 -386 -1105 -18 -181 -17 -531 3 -730 35 -346 41 -436 45
-711 l5 -282 -58 -21 c-31 -12 -89 -25 -128 -30 -39 -4 -64 -10 -56 -13 54
-20 160 -50 196 -55 l44 -6 0 -127 0 -127 -92 -31 c-315 -107 -557 -118 -679
-32 -43 31 -36 16 27 -55 63 -73 166 -159 239 -202 116 -68 280 -113 421 -116
l92 -2 -67 -31 c-98 -46 -219 -141 -377 -299 -236 -235 -335 -418 -360 -664
-5 -58 -4 -71 8 -71 8 0 22 17 32 37 26 56 97 152 150 203 55 54 232 146 354
183 45 14 82 23 82 21 0 -3 -12 -21 -26 -39 -70 -92 -147 -405 -100 -405 9 0
15 22 19 78 11 152 94 338 169 379 28 15 30 18 12 21 -37 6 -218 -48 -314 -93
l-95 -45 40 35 c60 52 157 109 279 162 120 52 129 71 13 27 -247 -93 -420
-235 -585 -480 -22 -33 -4 81 29 181 54 162 140 287 318 465 146 145 264 239
355 283 114 56 110 56 130 -10 22 -69 50 -126 84 -171 l25 -32 -17 -103 c-9
-56 -19 -118 -22 -138 -3 -20 -32 -78 -65 -129 -33 -50 -67 -106 -75 -122 -9
-17 -40 -60 -69 -96 -46 -54 -125 -186 -125 -206 0 -22 23 3 50 52 40 75 130
191 130 168 0 -10 -21 -48 -48 -85 -86 -120 -96 -141 -67 -141 8 0 15 5 15 12
0 9 107 158 114 158 1 0 22 -38 46 -85 31 -61 49 -85 62 -85 18 0 17 4 -7 43
-37 59 -72 138 -80 179 -8 44 5 75 83 201 58 92 63 104 78 200 9 56 18 104 21
107 3 3 3 -65 0 -150 -3 -116 -10 -176 -27 -240 -19 -72 -21 -100 -16 -185 8
-125 14 -155 33 -155 12 0 14 7 9 33 -16 73 -24 224 -15 267 15 70 20 79 29
55 12 -28 14 21 10 218 -2 114 1 157 9 157 8 0 9 5 1 19 -11 22 -13 111 -4
160 6 29 9 26 49 -63 23 -51 65 -131 93 -177 54 -89 104 -230 122 -344 6 -40
8 -117 4 -196 -5 -94 -4 -129 5 -129 6 0 11 10 11 23 0 38 19 309 26 369 l6
57 62 -35 c35 -19 76 -34 92 -33 26 0 24 2 -21 23 -68 31 -135 105 -135 148 0
60 12 65 67 30 102 -65 238 -123 286 -122 12 1 -15 14 -60 29 -149 51 -334
183 -421 300 -59 79 -123 195 -143 256 -7 22 -14 34 -17 27 -6 -20 36 -129 79
-202 21 -36 47 -91 58 -123 11 -32 36 -87 54 -123 47 -88 26 -69 -44 39 -73
114 -129 239 -173 392 -43 153 -61 262 -83 510 -10 120 -20 190 -24 175 -6
-21 -7 -22 -9 -5 0 11 -11 79 -24 150 l-23 130 -6 -175 c-15 -382 -4 -605 38
-790 13 -58 26 -114 30 -125 6 -16 5 -17 -4 -5 -18 25 -60 160 -76 245 -28
149 -36 338 -34 810 2 375 -1 497 -14 605 -34 290 -42 433 -41 710 1 431 40
646 181 1000 102 257 210 435 380 630 205 234 360 355 632 494 134 68 233 102
386 131 88 17 108 24 76 24 -24 1 -42 3 -40 5 11 11 176 38 269 44 203 13 494
-7 580 -40 14 -5 69 -14 123 -19 114 -11 250 -51 384 -114 108 -51 120 -68
159 -223 24 -96 31 -147 14 -107 -13 29 -11 10 5 -80 15 -83 18 -262 6 -305
l-7 -25 -8 23 c-4 13 -10 22 -12 20 -2 -3 10 -44 27 -94 40 -117 83 -296 106
-436 22 -136 23 -569 4 -1168 -21 -681 -53 -957 -151 -1297 -53 -185 -83 -251
-165 -360 -27 -36 -33 -55 -44 -141 -20 -165 -73 -338 -138 -450 -14 -24 -27
-42 -28 -40 -2 2 2 26 9 53 7 28 23 169 35 315 12 146 31 351 42 455 29 287
21 289 -21 5 -80 -537 -130 -730 -255 -980 -91 -181 -164 -281 -274 -372 -53
-44 -109 -86 -125 -95 l-28 -15 32 47 c118 171 228 552 264 912 9 82 27 193
41 247 15 54 24 100 22 103 -3 3 -20 -42 -38 -99 -100 -322 -268 -639 -448
-848 -46 -53 -37 -32 25 61 120 179 315 646 434 1041 42 139 193 760 236 971
13 67 31 149 39 182 8 33 30 159 50 280 19 121 40 250 46 287 15 86 6 454 -16
633 -16 134 -67 417 -85 470 -10 29 -10 28 -5 -9 2 -21 2 -37 0 -34 -2 2 -23
57 -46 123 -76 220 -189 425 -333 609 -83 106 -254 274 -308 303 l-42 23 -23
-22 c-29 -28 -29 -38 1 -38 36 0 114 -36 173 -81 105 -79 305 -349 410 -555
144 -280 244 -685 259 -1054 6 -140 5 -162 -15 -230 -45 -159 -145 -382 -202
-450 l-29 -34 0 159 c0 88 -5 225 -10 305 -6 80 -15 271 -20 425 -12 366 -40
542 -134 829 -36 109 -110 273 -139 311 -9 11 2 -17 24 -62 83 -172 168 -470
205 -723 30 -206 19 -680 -16 -680 -5 0 -33 14 -63 31 l-54 32 -7 96 c-15 203
-67 615 -86 676 -12 38 -6 -25 26 -315 13 -118 27 -266 31 -328 5 -99 4 -112
-9 -107 -15 6 -164 306 -188 378 -9 30 -9 59 4 150 19 142 29 289 17 262 -5
-11 -14 -66 -20 -122 -22 -196 -68 -386 -122 -508 -20 -46 -22 -47 -57 -41
-21 3 -60 6 -89 6 -48 0 -51 2 -47 23 7 32 -18 -21 -51 -113 -15 -41 -47 -116
-71 -166 -48 -102 -93 -148 -274 -281 -130 -95 -122 -92 -114 -41 13 89 85
350 154 562 39 120 69 220 66 223 -13 13 -155 -403 -207 -607 -32 -127 -59
-307 -59 -403 l-1 -62 -29 35 c-40 48 -107 166 -139 247 -38 94 -60 180 -75
298 -12 92 -14 98 -25 71 -6 -16 -15 -81 -19 -145 l-8 -116 -18 60 c-40 133
-58 257 -59 403 0 93 4 147 11 154 9 9 26 7 69 -5 32 -8 59 -14 61 -12 5 4
-96 35 -115 35 -18 0 -17 9 12 125 45 186 162 456 288 665 61 100 205 295 285
383 51 57 29 46 -26 -13 -163 -174 -282 -348 -407 -598 -81 -162 -128 -283
-165 -426 -16 -60 -35 -113 -42 -118 -7 -4 -51 -8 -98 -8 -47 0 -95 -3 -108
-6 -22 -6 -22 -6 11 87 19 52 53 132 76 177 63 125 95 202 73 173 -29 -36
-158 -299 -183 -371 -12 -36 -29 -71 -37 -78 -9 -6 -11 -12 -6 -12 6 0 -3 -55
-22 -128 -48 -189 -67 -334 -62 -481 l4 -125 -22 49 c-34 79 -65 212 -71 310
-10 170 40 499 103 675 78 214 238 501 389 695 l47 60 -57 -60 c-129 -137
-312 -454 -403 -700 -51 -137 -55 -157 -82 -385 -43 -366 -4 -819 91 -1036 11
-27 25 -60 30 -74 9 -24 8 -23 -16 5 -28 33 -85 144 -116 227 l-19 53 5 -44
c3 -24 19 -76 35 -115 34 -82 46 -152 55 -325 6 -101 13 -141 37 -210 l30 -86
-8 -225 c-5 -124 -8 -367 -8 -540 l1 -315 31 -95 c45 -136 160 -320 266 -425
45 -45 96 -87 114 -94 17 -7 32 -19 32 -26 0 -8 19 -13 58 -13 l57 -1 -59 20
c-73 25 -125 60 -198 136 -106 109 -226 322 -254 448 -17 81 -31 355 -18 355
5 1 54 8 109 16 55 8 163 19 240 24 77 4 178 13 224 20 46 6 86 9 88 6 3 -3 0
-20 -6 -38 -6 -18 -16 -107 -21 -198 -6 -91 -15 -201 -20 -245 -18 -162 -4
-393 36 -565 24 -103 86 -223 140 -267 l46 -38 -6 -62 c-8 -80 10 -85 20 -6 4
36 3 63 -4 74 -10 15 -7 19 21 24 31 7 150 74 213 122 25 18 47 24 97 27 51 2
74 8 106 29 22 15 45 27 51 27 20 0 196 186 241 255 91 139 128 202 179 302
29 56 59 108 68 115 13 12 15 8 9 -27 -72 -498 -186 -796 -352 -922 -38 -29
-24 -29 52 1 75 29 133 69 236 159 146 129 271 345 378 652 l38 110 1 -74 c0
-128 -41 -245 -108 -307 -46 -42 -29 -44 26 -5 71 52 183 232 221 358 l16 52
65 -41 c36 -22 151 -82 256 -133 168 -83 197 -101 246 -153 57 -60 123 -177
159 -281 35 -102 18 -228 -56 -403 -5 -13 -3 -18 7 -18 17 0 39 46 66 139 l19
65 30 -80 c17 -43 34 -89 38 -101 6 -23 25 -32 25 -13 0 16 -30 101 -62 173
-23 54 -27 74 -20 95 8 25 11 21 41 -58 19 -47 41 -115 50 -152 14 -59 19 -68
39 -68 18 0 21 3 14 18 -5 9 -26 67 -47 127 -20 61 -53 141 -72 179 -19 37
-32 70 -30 72 2 3 35 -11 73 -30 166 -82 452 -148 692 -159 58 -3 102 -1 102
4 0 5 -12 9 -26 9 -42 0 -135 30 -204 66 -189 99 -368 316 -540 656 -66 128
-134 288 -126 295 2 2 34 -22 72 -53 132 -109 287 -200 409 -241 74 -26 190
-46 230 -42 27 4 22 8 -50 43 -61 30 -99 58 -160 120 -182 184 -287 484 -301
865 -5 146 7 359 19 331 3 -8 30 -82 60 -165 63 -175 200 -502 424 -1015 161
-367 259 -613 359 -900 30 -85 57 -161 59 -169 3 -8 8 -11 11 -8 17 17 -205
609 -396 1052 -146 340 -393 925 -425 1005 -9 25 -35 97 -56 160 -32 93 -38
124 -33 160 14 109 48 295 98 550 76 385 89 483 88 690 0 260 -35 484 -109
715 -83 257 -126 351 -245 535 l-49 75 51 -55 c69 -73 180 -240 241 -361 51
-102 163 -368 175 -414 3 -14 9 -24 11 -21 13 13 -103 320 -178 468 -83 166
-151 254 -399 516 -188 200 -262 257 -453 352 -86 43 -168 81 -182 84 -14 4
-23 11 -20 17 9 14 141 79 215 105 36 12 58 23 49 23 -33 2 -128 -33 -211 -77
l-86 -46 -80 22 c-44 12 -91 22 -106 22 -14 0 -26 4 -26 9 0 5 31 38 69 74
118 111 326 197 476 197 74 0 160 -28 230 -74 28 -18 64 -41 80 -51 l30 -19
-25 27 c-37 42 -118 92 -188 116 -80 27 -199 27 -299 0z m-973 -474 c41 -21
38 -24 -10 -12 -22 6 -40 15 -40 19 0 12 18 10 50 -7z m1152 -82 c47 -107 63
-222 63 -473 l0 -235 13 100 c24 191 -11 508 -68 614 -6 12 -8 21 -5 21 12 0
123 -80 153 -110 17 -16 35 -30 40 -30 21 0 156 -159 226 -265 116 -175 151
-240 215 -400 143 -362 198 -646 188 -970 -6 -186 -25 -317 -103 -680 -74
-348 -111 -607 -115 -805 l-2 -75 -8 70 c-4 39 -11 185 -16 325 l-8 255 -6
-140 c-9 -203 5 -409 46 -670 47 -307 70 -391 150 -552 76 -151 153 -245 261
-314 35 -23 64 -43 64 -45 0 -5 -58 6 -120 23 -237 64 -654 397 -749 598 -82
175 -139 417 -155 660 -7 103 2 149 32 153 12 2 22 9 21 15 -4 20 60 142 73
142 8 0 12 13 11 35 -1 19 5 60 13 91 17 68 17 91 3 142 -11 41 -56 77 -96 77
-23 0 -23 0 -23 173 0 94 5 258 11 362 30 548 1 887 -101 1191 l-30 88 12 113
c19 181 -11 416 -71 557 l-20 46 40 -21 c30 -15 46 -32 61 -66z m-1009 -1490
c49 -108 70 -163 61 -163 -7 0 -37 9 -65 20 -28 12 -57 19 -63 17 -6 -2 15
-12 46 -21 105 -33 112 -42 152 -165 35 -109 36 -114 36 -277 l0 -166 -22 6
c-144 42 -291 56 -368 36 -110 -28 -158 -44 -190 -61 -33 -19 -22 -20 25 -5
16 6 14 3 -5 -11 -36 -26 -90 -83 -90 -95 0 -6 8 -7 18 -3 44 19 228 85 234
85 5 0 -8 -20 -27 -45 -45 -59 -55 -99 -55 -216 0 -140 30 -230 87 -263 8 -4
7 2 -2 21 -32 61 -10 146 48 181 43 27 45 27 57 -3 14 -36 55 -43 86 -14 l26
24 39 -42 c47 -51 53 -102 17 -140 -15 -16 -19 -26 -11 -34 17 -17 89 60 123
133 42 89 47 147 21 222 l-21 60 26 -25 c48 -44 123 -151 129 -183 6 -28 -3
-66 -30 -129 -9 -22 40 8 151 92 l72 54 -30 51 c-66 111 -192 247 -262 283
-17 9 -32 17 -34 18 -2 2 6 23 17 48 34 76 63 157 95 274 23 81 35 110 44 104
16 -10 35 -304 30 -453 -2 -77 0 -108 8 -108 16 0 137 182 170 255 15 33 40
94 56 135 l29 75 -6 -65 c-17 -179 -119 -718 -201 -1053 l-46 -189 -57 -44
c-141 -112 -308 -207 -476 -269 -128 -48 -449 -129 -634 -160 -166 -28 -149
-33 -286 70 -171 128 -347 291 -444 410 -131 159 -151 211 -162 420 -4 83 -10
159 -14 170 -4 13 1 10 16 -10 34 -45 130 -138 136 -132 3 3 -5 20 -16 36 -34
47 -108 210 -127 276 -20 74 -53 233 -54 259 0 13 10 5 29 -26 40 -64 51 -68
51 -19 0 23 3 41 8 41 4 0 5 22 4 49 -4 46 -2 51 25 64 27 14 143 29 143 18 0
-2 -10 -25 -22 -50 -20 -39 -23 -62 -23 -156 1 -60 7 -135 14 -165 16 -66 54
-135 82 -151 19 -10 19 -7 -5 34 -24 41 -26 48 -15 96 7 34 19 57 36 71 29 23
73 27 73 7 0 -28 38 -50 75 -44 34 6 37 4 52 -31 17 -42 12 -112 -12 -149 -20
-30 -5 -30 23 0 41 43 55 103 55 224 l0 111 26 -24 c33 -31 37 -19 11 40 -11
26 -15 44 -10 41 25 -15 -13 59 -51 101 -17 19 -19 34 -17 135 l3 114 14 -75
c17 -95 69 -242 114 -322 39 -70 145 -218 155 -218 4 0 8 59 9 132 1 106 4
134 16 142 9 6 55 38 104 71 48 33 116 84 151 113 l63 53 -32 -63 c-17 -35
-40 -76 -51 -91 -11 -16 -18 -30 -16 -33 10 -10 140 100 211 178 114 125 178
209 231 303 36 64 52 84 65 81 9 -3 30 -8 46 -11 20 -3 16 0 -13 11 -33 12
-42 20 -38 33 39 116 81 239 82 237 1 0 35 -74 77 -163z m-1382 40 c-69 -79
-181 -231 -222 -301 -22 -37 -39 -59 -39 -50 0 34 51 260 76 340 17 52 15 51
168 56 l58 2 -41 -47z m61 -108 c-2 -92 2 -162 12 -218 15 -76 53 -217 71
-261 6 -13 -7 -7 -44 19 -77 55 -156 78 -279 79 l-103 1 6 25 c15 63 174 306
277 423 33 37 61 67 62 67 0 0 0 -61 -2 -135z m1114 -28 c10 -9 -70 -144 -142
-240 -58 -77 -250 -285 -242 -262 2 6 35 73 73 150 57 114 102 228 141 354 3
10 22 13 84 9 44 -3 83 -8 86 -11z m362 -158 l2 -34 -15 34 c-18 40 -18 44 -2
39 6 -3 13 -20 15 -39z m142 -59 c0 -22 -66 -265 -89 -330 l-20 -55 0 171 c-1
94 -4 199 -8 234 l-6 63 61 -34 c34 -18 62 -40 62 -49z m46 2 c-12 -12 -18 8
-10 35 l8 28 4 -28 c2 -16 1 -31 -2 -35z m-1586 -433 c19 -34 9 -64 -22 -67
-21 -3 -30 2 -39 21 -23 50 36 94 61 46z m1224 -212 c8 -21 6 -31 -9 -47 -10
-11 -22 -20 -27 -20 -17 0 -48 41 -48 65 0 50 66 52 84 2z m1196 -27 c25 -13
44 -83 36 -135 -10 -62 -63 -226 -86 -262 -31 -52 -42 -42 -36 35 2 37 5 85 5
106 l1 39 23 -21 c13 -12 29 -22 35 -22 22 0 12 36 -18 65 -25 24 -30 36 -30
77 0 56 11 60 51 17 16 -17 29 -25 29 -18 0 19 -41 59 -61 59 -23 0 -28 9 -22
43 4 21 11 27 30 27 13 0 33 -5 43 -10z m-94 -823 c17 -126 54 -272 89 -359
14 -34 23 -63 21 -65 -6 -6 -91 144 -135 238 -23 48 -41 102 -41 120 0 32 24
181 37 229 6 21 8 19 10 -15 2 -22 10 -89 19 -148z m-2620 58 c38 -44 79 -91
91 -105 12 -13 19 -28 14 -33 -8 -8 -185 -97 -187 -94 -1 1 1 73 3 160 3 86 7
156 8 155 1 -2 33 -39 71 -83z m1894 -52 c-1 -23 -13 -52 -21 -47 -5 3 -9 -17
-9 -43 0 -47 -30 -179 -67 -295 l-18 -57 -43 22 c-25 13 -57 42 -77 71 -31 45
-35 56 -35 115 l0 66 58 33 c32 19 89 58 127 87 69 53 85 62 85 48z m-1706
-142 c21 -22 35 -44 32 -50 -4 -6 -59 -45 -122 -87 -90 -60 -124 -77 -155 -79
l-41 -2 7 56 c4 31 10 59 13 62 4 4 37 16 74 29 37 12 70 26 73 31 9 13 -16
11 -61 -4 -95 -33 -91 -24 11 27 61 30 115 55 120 55 6 1 28 -17 49 -38z
m2515 -297 c28 -44 89 -164 136 -269 47 -104 106 -225 131 -268 44 -77 112
-177 120 -177 2 0 -21 41 -51 91 -67 110 -99 172 -182 354 l-63 140 72 -79
c66 -72 76 -88 105 -175 48 -141 160 -361 262 -512 141 -211 273 -342 420
-416 79 -39 64 -42 -89 -13 -222 40 -366 84 -478 145 -82 45 -98 59 -107 92
-13 52 -116 212 -163 253 -29 25 -119 76 -232 132 -228 111 -332 174 -326 197
15 53 26 106 36 185 9 69 17 98 39 130 69 100 175 354 197 472 7 36 7 36 64
-84 32 -66 81 -155 109 -198z m-3309 241 c0 -30 -3 -35 -22 -35 -23 1 -137 27
-128 30 16 5 136 37 143 39 4 0 7 -15 7 -34z m2220 -26 c0 -61 -23 -64 -28 -4
-3 32 7 54 26 55 1 0 2 -23 2 -51z m-1252 -67 c53 -43 92 -81 92 -91 0 -10
-11 -44 -24 -76 -28 -68 -28 -69 -166 -79 l-95 -7 36 38 c53 56 79 94 78 112
0 11 -5 9 -17 -9 -9 -14 -41 -51 -71 -82 -61 -65 -85 -75 -208 -84 l-83 -7 0
96 c0 85 2 98 19 107 29 15 37 12 15 -6 -19 -15 -19 -16 1 -9 37 11 163 88
232 140 54 40 71 49 83 41 9 -6 57 -44 108 -84z m1212 58 c0 -16 -5 -30 -10
-30 -14 0 -24 26 -16 45 10 26 26 16 26 -15z m-35 -88 c15 -46 25 -85 24 -86
-28 -25 -297 -191 -364 -226 -90 -45 -194 -78 -213 -66 -5 3 -15 27 -21 52 -7
26 -33 89 -58 141 -25 52 -44 95 -42 97 2 2 56 12 119 24 130 24 234 54 400
116 63 23 118 40 121 37 4 -3 19 -43 34 -89z m50 18 c10 -11 32 -41 49 -67 27
-40 74 -75 129 -95 4 -2 -13 -64 -39 -137 -70 -203 -78 -220 -119 -236 -44
-19 -95 -19 -121 -1 -19 13 -23 12 -47 -13 -42 -45 -81 -57 -136 -42 -73 19
-103 42 -152 116 l-45 68 100 51 c115 58 350 207 384 244 26 28 27 79 2 75 -9
-2 -20 9 -27 27 -13 35 -4 39 22 10z m-2080 -147 c-7 -17 -8 -17 -15 2 -5 11
-8 52 -8 90 l0 70 15 -72 c9 -40 12 -80 8 -90z m1025 31 c48 -35 53 -36 113
-31 34 4 78 9 97 12 l35 5 -41 -20 c-47 -22 -176 -52 -214 -49 -14 1 -33 -1
-42 -5 -9 -4 -25 -6 -36 -4 -19 3 -19 5 6 66 14 34 27 62 29 62 2 0 26 -16 53
-36z m283 -11 c-7 -2 -19 -2 -25 0 -7 3 -2 5 12 5 14 0 19 -2 13 -5z m54 -85
c17 -29 39 -78 49 -108 9 -30 21 -61 27 -67 15 -20 2 -39 -45 -62 -50 -24
-100 -27 -116 -8 -6 6 -12 26 -15 42 l-4 30 -2 -32 c0 -18 6 -39 16 -48 25
-25 103 -15 147 18 27 21 41 25 65 21 17 -4 28 -10 25 -15 -3 -5 2 -12 11 -15
9 -4 25 -24 36 -46 11 -21 35 -56 54 -77 l35 -38 -55 -12 c-30 -7 -55 -18 -55
-24 0 -7 -5 -30 -11 -52 -11 -39 -12 -40 -22 -15 l-11 25 -4 -27 c-2 -16 -8
-28 -13 -28 -17 0 -22 30 -8 47 12 14 12 16 -1 11 -8 -2 -16 -19 -18 -36 -4
-37 19 -52 48 -34 17 10 17 8 4 -51 -8 -34 -21 -85 -29 -114 -8 -28 -15 -59
-15 -69 0 -16 1 -17 13 -1 6 9 42 30 80 47 71 32 86 46 38 35 -22 -5 -35 0
-56 17 l-27 24 16 84 c9 47 19 95 21 107 4 16 19 26 60 39 52 17 56 17 96 -1
70 -32 84 -76 34 -109 -20 -13 -22 -21 -16 -43 15 -53 -17 -117 -58 -118 -11
0 -15 -7 -13 -25 2 -14 -2 -42 -9 -62 -10 -32 -10 -41 3 -55 41 -48 27 -116
-36 -170 -20 -18 -36 -39 -36 -48 0 -8 -6 -15 -14 -15 -20 0 -31 -21 -16 -30
25 -16 -23 -68 -123 -134 -55 -37 -101 -65 -103 -64 -2 2 12 44 29 93 30 83
36 91 71 108 43 20 44 33 1 17 -25 -10 -27 -9 -22 12 27 122 22 117 -31 -27
-76 -208 -83 -225 -98 -225 -8 0 -14 5 -14 10 0 6 -8 10 -17 10 -15 0 -16 -2
-3 -10 8 -5 11 -12 7 -16 -9 -9 -47 25 -47 41 0 7 -6 15 -12 18 -16 6 -75 123
-94 187 -13 43 -13 54 0 85 11 25 21 35 38 35 l23 0 -24 19 c-20 15 -23 24
-17 53 5 26 2 39 -9 48 -19 16 -19 43 0 107 17 56 43 85 78 86 14 0 27 8 33
21 5 11 19 22 32 24 23 4 29 16 12 27 -5 3 -10 22 -10 42 0 20 -7 45 -17 55
-14 15 -14 24 -4 57 6 21 17 41 25 44 9 3 12 15 9 31 -3 14 -1 26 3 27 82 4
105 8 139 24 22 11 43 21 46 22 8 4 -9 -91 -53 -297 -45 -218 -50 -242 -45
-246 3 -3 15 32 27 78 29 106 101 461 95 467 -3 2 2 13 12 23 28 32 8 30 -68
-7 -98 -47 -130 -46 -180 4 -48 48 -52 89 -13 120 21 16 23 23 15 40 -12 22
-14 61 -5 86 8 20 73 65 94 65 9 0 30 -24 47 -52z m-1347 27 c0 -8 -7 -15 -15
-15 -26 0 -18 20 13 29 1 1 2 -6 2 -14z m1184 -22 c-5 -10 -9 -40 -9 -68 0
-31 -7 -59 -18 -75 -30 -43 -15 -107 37 -147 28 -22 26 -62 -5 -102 -24 -30
-26 -106 -4 -115 17 -6 22 -86 5 -86 -6 0 -16 -11 -22 -25 -6 -14 -19 -25 -28
-25 -18 0 -61 -42 -79 -78 -7 -13 -13 -48 -14 -78 -2 -44 2 -57 16 -65 13 -8
15 -14 7 -29 -6 -12 -7 -28 -1 -42 7 -18 4 -30 -9 -48 -18 -24 -18 -24 -26 56
-14 128 -6 329 15 388 32 88 33 92 11 56 l-21 -35 6 105 c4 58 6 128 5 157 -1
61 18 211 30 232 4 8 28 20 52 27 60 16 61 16 52 -3z m-1171 -83 c4 -36 14
-112 22 -170 8 -58 15 -108 15 -112 0 -3 -14 -11 -30 -17 -23 -8 -32 -7 -35 2
-9 27 -25 196 -25 264 0 83 6 105 29 101 12 -2 18 -20 24 -68z m-139 -12 c10
-108 26 -244 32 -280 l7 -38 -111 0 c-248 0 -452 86 -617 261 -36 37 -37 41
-15 34 128 -37 262 -28 515 34 88 22 165 40 172 40 7 1 14 -20 17 -51z m1745
-182 c59 -87 113 -120 196 -121 42 0 57 5 91 32 28 22 44 29 55 22 20 -12 96
-11 121 2 26 14 34 5 20 -26 -10 -21 -18 -25 -57 -25 -25 0 -54 5 -64 11 -15
10 -22 8 -39 -9 -55 -55 -147 -71 -222 -38 -51 21 -116 81 -147 134 -14 26
-33 52 -41 59 -17 14 -7 33 18 33 13 0 36 -25 69 -74z m-1551 -143 c22 -54 24
-83 12 -154 -8 -49 -15 -67 -21 -58 -11 17 -72 209 -67 213 7 5 53 25 59 25 4
1 11 -11 17 -26z m2010 -8 c8 -7 -113 -266 -143 -306 -46 -60 -373 -394 -380
-387 -10 9 25 64 53 85 34 25 62 79 62 120 0 15 -9 45 -20 65 -11 20 -16 40
-11 43 5 3 13 20 17 38 3 17 19 47 35 64 28 33 46 91 36 117 -3 8 5 24 19 37
14 13 24 34 24 50 0 25 3 27 58 31 41 3 69 11 92 28 21 15 32 19 28 9 -16 -42
-59 -192 -56 -195 2 -2 17 36 32 84 46 142 37 130 98 124 29 -2 54 -6 56 -7z
m-570 -277 c17 -17 15 -23 -13 -36 -35 -16 -35 -16 -24 18 12 33 19 36 37 18z
m-1098 -186 c0 -55 -15 -55 -46 0 -48 86 -48 90 2 57 34 -24 44 -37 44 -57z
m1450 -6 c-95 -166 -220 -286 -298 -286 l-35 0 83 78 c99 91 274 269 279 283
1 6 5 8 8 5 3 -3 -14 -39 -37 -80z m-1469 -191 c-5 -33 -9 -52 -10 -43 0 10
-12 52 -26 94 l-24 78 34 -35 c35 -34 35 -35 26 -94z"/>
<path d="M4371 5150 c-1 -3 15 -41 34 -85 19 -44 35 -73 34 -65 0 15 -66 160
-68 150z"/>
<path d="M4445 4960 c3 -14 15 -63 26 -110 11 -47 29 -139 40 -205 15 -97 18
-106 14 -50 -5 84 -38 250 -65 331 -11 33 -17 48 -15 34z"/>
<path d="M4534 4420 c0 -58 1 -81 3 -52 2 28 2 76 0 105 -2 28 -3 5 -3 -53z"/>
<path d="M4522 4240 c0 -14 2 -19 5 -12 2 6 2 18 0 25 -3 6 -5 1 -5 -13z"/>
<path d="M4736 2883 c-6 -14 -5 -15 5 -6 7 7 10 15 7 18 -3 3 -9 -2 -12 -12z"/>
<path d="M2718 3150 c-54 -29 -57 -44 -4 -18 25 12 46 26 46 30 0 10 2 11 -42
-12z"/>
<path d="M2090 2061 c0 -20 72 -70 107 -76 21 -3 47 -8 57 -10 39 -8 187 31
158 42 -7 3 -33 -2 -59 -11 -86 -29 -170 -16 -218 34 -29 30 -45 38 -45 21z"/>
<path d="M4082 1400 c0 -14 2 -19 5 -12 2 6 2 18 0 25 -3 6 -5 1 -5 -13z"/>
<path d="M4091 1334 c0 -11 3 -14 6 -6 3 7 2 16 -1 19 -3 4 -6 -2 -5 -13z"/>
<path d="M4101 1274 c0 -11 3 -14 6 -6 3 7 2 16 -1 19 -3 4 -6 -2 -5 -13z"/>
<path d="M2417 1502 c-30 -32 -36 -82 -12 -102 13 -11 13 -15 0 -33 -8 -12
-15 -26 -15 -32 0 -5 8 4 19 20 16 26 16 32 5 46 -23 25 -17 70 13 101 15 15
24 28 22 28 -3 0 -17 -13 -32 -28z"/>
<path d="M2418 903 c7 -3 16 -2 19 1 4 3 -2 6 -13 5 -11 0 -14 -3 -6 -6z"/>
<path d="M2415 843 c35 -54 45 -67 45 -59 0 15 -44 86 -53 86 -5 0 -1 -12 8
-27z"/>
<path d="M2508 726 c-12 -28 -5 -56 14 -55 10 0 10 2 1 6 -16 6 -17 39 -2 49
6 3 15 0 20 -7 6 -10 9 -8 9 9 0 30 -27 29 -42 -2z"/>
<path d="M2304 490 c9 -14 28 -42 42 -62 l27 -38 -22 -49 c-27 -64 -27 -91 0
-31 29 64 71 191 65 197 -3 3 -10 -15 -17 -41 -6 -25 -14 -46 -18 -46 -3 0
-26 21 -50 47 -24 27 -36 37 -27 23z"/>
<path d="M2417 433 c-12 -11 -8 -41 6 -46 8 -3 20 -1 28 4 11 8 9 9 -6 7 -15
-2 -19 2 -18 20 3 23 1 26 -10 15z"/>
<path d="M4598 5689 c63 -12 128 -31 165 -50 161 -79 294 -291 425 -674 143
-420 244 -917 302 -1490 62 -614 154 -1157 244 -1440 14 -44 34 -117 45 -163
11 -46 24 -89 29 -95 5 -7 14 -25 20 -42 5 -16 13 -39 17 -50 24 -66 -184 296
-275 480 -60 121 -110 217 -110 213 0 -14 93 -224 150 -337 32 -64 104 -192
160 -286 56 -93 125 -214 152 -267 51 -100 78 -136 78 -103 0 10 -16 47 -36
83 -56 100 -151 385 -205 617 -26 116 -64 277 -83 358 -20 81 -42 187 -50 235
-15 84 -89 626 -121 882 -9 69 -20 146 -25 171 -5 26 -16 109 -25 185 -47 406
-160 870 -297 1214 -112 284 -231 451 -370 519 -70 35 -180 61 -248 60 -35 -1
-22 -5 58 -20z"/>
<path d="M2828 5603 c7 -3 16 -2 19 1 4 3 -2 6 -13 5 -11 0 -14 -3 -6 -6z"/>
<path d="M3064 5541 c-36 -9 -78 -37 -113 -75 l-24 -25 -37 32 c-21 18 -53 40
-72 50 l-33 18 25 -21 c14 -11 47 -39 73 -61 l48 -41 39 39 c22 21 54 46 72
56 69 37 269 10 383 -51 236 -128 496 -389 630 -634 20 -38 38 -68 40 -68 6 0
-44 123 -61 149 -59 91 -170 229 -248 307 -150 150 -308 254 -471 309 -56 19
-203 29 -251 16z"/>
<path d="M4080 5519 c98 -10 238 -37 325 -63 27 -9 51 -14 53 -11 5 5 -110 39
-201 59 -37 9 -114 18 -170 20 l-102 5 95 -10z"/>
<path d="M3943 5513 c9 -2 23 -2 30 0 6 3 -1 5 -18 5 -16 0 -22 -2 -12 -5z"/>
<path d="M2657 5426 c-27 -7 -54 -19 -60 -26 -10 -10 -8 -12 7 -6 83 29 232
34 257 9 9 -9 7 -11 -9 -6 -33 8 -217 -16 -291 -39 -68 -21 -220 -94 -256
-122 -11 -9 16 0 60 20 195 88 255 104 419 113 130 7 150 17 89 47 -48 23
-153 28 -216 10z"/>
<path d="M4015 5326 c10 -14 19 -26 22 -26 7 0 -17 39 -28 46 -6 3 -3 -5 6
-20z"/>
<path d="M4079 5206 c14 -36 27 -61 29 -57 3 9 -44 121 -51 121 -3 0 7 -29 22
-64z"/>
<path d="M4892 5160 c25 -36 64 -100 88 -142 23 -43 44 -78 46 -78 15 0 -132
246 -163 271 -8 8 5 -16 29 -51z"/>
<path d="M5040 4901 c0 -6 4 -13 10 -16 6 -3 7 1 4 9 -7 18 -14 21 -14 7z"/>
<path d="M3681 4464 c0 -11 3 -14 6 -6 3 7 2 16 -1 19 -3 4 -6 -2 -5 -13z"/>
<path d="M5166 3890 c7 -145 55 -541 89 -722 14 -76 25 -143 25 -149 0 -7 3
-10 6 -7 3 3 -10 116 -30 250 -19 133 -42 306 -51 383 -9 77 -22 190 -30 250
l-14 110 5 -115z"/>
<path d="M4133 3840 c0 -41 2 -58 4 -37 2 20 2 54 0 75 -2 20 -4 3 -4 -38z"/>
<path d="M2020 3850 c8 -5 20 -10 25 -10 6 0 3 5 -5 10 -8 5 -19 10 -25 10 -5
0 -3 -5 5 -10z"/>
<path d="M2728 3723 c7 -3 16 -2 19 1 4 3 -2 6 -13 5 -11 0 -14 -3 -6 -6z"/>
<path d="M4116 3553 c-14 -348 -53 -895 -76 -1078 -5 -38 -32 -214 -59 -390
-58 -379 -81 -549 -81 -590 l1 -30 40 45 c66 75 97 128 128 223 73 222 105
500 117 1009 7 286 0 338 -25 193 -15 -88 -83 -367 -88 -361 -2 2 3 82 11 177
24 260 55 969 44 969 -3 0 -8 -75 -12 -167z m33 -984 c0 -96 -1 -194 0 -219 1
-54 -12 -81 -31 -62 -19 19 -29 14 -22 -12 4 -19 -1 -27 -29 -45 -44 -27 -49
-26 -42 4 3 14 7 36 10 50 3 15 20 33 43 45 l37 21 -33 -5 c-31 -5 -32 -4 -26
22 3 15 9 38 14 52 15 44 70 289 70 311 0 12 2 20 5 17 3 -3 5 -84 4 -179z
m-24 -450 c-36 -247 -72 -398 -113 -469 -30 -53 -73 -112 -78 -107 -6 6 62
515 82 609 3 17 21 37 51 56 68 44 76 32 58 -89z"/>
<path d="M1126 2462 c-5 -128 -6 -235 -3 -238 6 -6 20 389 15 436 -2 19 -7
-70 -12 -198z"/>
<path d="M1395 2367 c-4 -21 -8 -192 -9 -380 -1 -365 3 -418 52 -637 26 -121
27 -124 34 -80 22 148 -2 583 -56 1030 -11 93 -14 101 -21 67z m34 -489 c1
-46 -3 -78 -9 -78 -6 0 -9 52 -9 138 2 112 3 126 9 77 4 -33 8 -95 9 -137z
m11 -213 c0 -65 -16 -74 -22 -12 -4 36 4 67 18 67 2 0 4 -25 4 -55z m9 -157
l-1 -83 -12 75 c-12 77 -11 90 5 90 5 0 8 -37 8 -82z"/>
<path d="M3624 116 c-74 -49 -131 -103 -120 -114 3 -2 36 22 73 54 38 33 84
71 103 86 55 43 32 32 -56 -26z"/>
<path d="M2237 105 c-22 -21 -31 -73 -17 -90 17 -21 86 -20 94 1 26 67 -32
134 -77 89z"/>
</g>
</svg>
